<svg xmlns="http://www.w3.org/2000/svg" viewBox="0 0 800 800" width="800" height="800" role="img"><rect width="800" height="800" fill="#EFF7F8"/><ellipse cx="400" cy="700" rx="210" ry="26" fill="#173A47" opacity="0.08"/><path d="M286 300 C286 210 350 178 400 178 C450 178 514 210 514 300" fill="none" stroke="#E7DCA0" stroke-width="22" stroke-linecap="round"/><path d="M210 300 H590 a14 14 0 0 1 14 14 V650 a40 40 0 0 1 -40 40 H236 a40 40 0 0 1 -40 -40 V314 a14 14 0 0 1 14 -14 Z" fill="#F0E6A8"/><path d="M210 300 H590 a14 14 0 0 1 14 14 V650 a40 40 0 0 1 -40 40 H236 a40 40 0 0 1 -40 -40 V314 a14 14 0 0 1 14 -14 Z" fill="none" stroke="#173A47" stroke-width="4" opacity="0.18"/><g transform="translate(330 410) rotate(-8)" fill="none" stroke="#173A47" stroke-width="5" stroke-linecap="round"><path d="M -38 -5.7 q 38 -19.0 76 0" transform="translate(-38 0)" opacity="0"/><circle cx="0" cy="0" r="38" stroke-dasharray="0.1 0" opacity="0.9"/><circle cx="-13.3" cy="-7.6" r="3.4" fill="#173A47"/><circle cx="13.3" cy="-7.6" r="3.4" fill="#173A47"/><path d="M -17.1 7.6 q 17.1 19.0 34.2 0" /></g><g transform="translate(500 470) rotate(6)" fill="none" stroke="#173A47" stroke-width="5" stroke-linecap="round"><path d="M -30 -4.5 q 30 -15.0 60 0" transform="translate(-30 0)" opacity="0"/><circle cx="0" cy="0" r="30" stroke-dasharray="0.1 0" opacity="0.9"/><circle cx="-10.5" cy="-6.0" r="3.4" fill="#173A47"/><circle cx="10.5" cy="-6.0" r="3.4" fill="#173A47"/><path d="M -13.5 6.0 q 13.5 15.0 27.0 0" /></g><g transform="translate(400 560) rotate(-4)" fill="none" stroke="#173A47" stroke-width="5" stroke-linecap="round"><path d="M -26 -3.9 q 26 -13.0 52 0" transform="translate(-26 0)" opacity="0"/><circle cx="0" cy="0" r="26" stroke-dasharray="0.1 0" opacity="0.9"/><circle cx="-9.1" cy="-5.2" r="3.4" fill="#173A47"/><circle cx="9.1" cy="-5.2" r="3.4" fill="#173A47"/><path d="M -11.7 5.2 q 11.7 13.0 23.4 0" /></g><text x="400" y="650" text-anchor="middle" font-family="Space Mono, monospace" font-size="18" letter-spacing="4" fill="#173A47" opacity="0.7">SUNNYTOTES</text></svg>