<svg xmlns="http://www.w3.org/2000/svg" viewBox="0 0 800 800" width="800" height="800" role="img"><rect width="800" height="800" fill="#EFF7F8"/><ellipse cx="400" cy="700" rx="210" ry="26" fill="#173A47" opacity="0.08"/><defs>
      <radialGradient id="dye-wave" cx="46%" cy="40%" r="72%">
        <stop offset="0%" stop-color="#FBFEFF"/>
        <stop offset="42%" stop-color="#6FAED9" stop-opacity="0.55"/>
        <stop offset="100%" stop-color="#6FAED9"/>
      </radialGradient>
      <clipPath id="bag-wave">
        <path d="M210 300 H590 a14 14 0 0 1 14 14 V650 a40 40 0 0 1 -40 40 H236 a40 40 0 0 1 -40 -40 V314 a14 14 0 0 1 14 -14 Z"/>
      </clipPath>
    </defs><path d="M286 300 C286 210 350 178 400 178 C450 178 514 210 514 300" fill="none" stroke="#E7DCA0" stroke-width="22" stroke-linecap="round"/><path d="M286 300 C286 210 350 178 400 178 C450 178 514 210 514 300" fill="none" stroke="#6FAED9" stroke-width="22" stroke-linecap="round" opacity="0.35"/><g clip-path="url(#bag-wave)"><rect x="196" y="290" width="408" height="400" fill="url(#dye-wave)"/><circle cx="413" cy="601" r="60" fill="#6FAED9" opacity="0.10"/><circle cx="416" cy="362" r="55" fill="#6FAED9" opacity="0.10"/><circle cx="481" cy="505" r="32" fill="#6FAED9" opacity="0.10"/><circle cx="472" cy="564" r="27" fill="#6FAED9" opacity="0.10"/><circle cx="278" cy="411" r="58" fill="#6FAED9" opacity="0.10"/><circle cx="322" cy="406" r="43" fill="#6FAED9" opacity="0.10"/><circle cx="257" cy="491" r="45" fill="#6FAED9" opacity="0.10"/><rect x="313" y="300" width="16" height="390" fill="#FBFEFF" opacity="0.18"/><rect x="341" y="300" width="13" height="390" fill="#FBFEFF" opacity="0.18"/><rect x="549" y="300" width="11" height="390" fill="#FBFEFF" opacity="0.18"/><rect x="437" y="300" width="16" height="390" fill="#FBFEFF" opacity="0.18"/><rect x="552" y="300" width="13" height="390" fill="#FBFEFF" opacity="0.18"/></g><path d="M210 300 H590 a14 14 0 0 1 14 14 V650 a40 40 0 0 1 -40 40 H236 a40 40 0 0 1 -40 -40 V314 a14 14 0 0 1 14 -14 Z" fill="none" stroke="#173A47" stroke-width="4" opacity="0.22"/><g transform="translate(400 470)"><line x1="-61.4" y1="0.0" x2="-78.0" y2="0.0" stroke="#F7DF75" stroke-width="8.3" stroke-linecap="round"/><line x1="-56.7" y1="-23.5" x2="-72.1" y2="-29.8" stroke="#F7DF75" stroke-width="8.3" stroke-linecap="round"/><line x1="-43.4" y1="-43.4" x2="-55.2" y2="-55.2" stroke="#F7DF75" stroke-width="8.3" stroke-linecap="round"/><line x1="-23.5" y1="-56.7" x2="-29.8" y2="-72.1" stroke="#F7DF75" stroke-width="8.3" stroke-linecap="round"/><line x1="-0.0" y1="-61.4" x2="-0.0" y2="-78.0" stroke="#F7DF75" stroke-width="8.3" stroke-linecap="round"/><line x1="23.5" y1="-56.7" x2="29.8" y2="-72.1" stroke="#F7DF75" stroke-width="8.3" stroke-linecap="round"/><line x1="43.4" y1="-43.4" x2="55.2" y2="-55.2" stroke="#F7DF75" stroke-width="8.3" stroke-linecap="round"/><line x1="56.7" y1="-23.5" x2="72.1" y2="-29.8" stroke="#F7DF75" stroke-width="8.3" stroke-linecap="round"/><line x1="61.4" y1="-0.0" x2="78.0" y2="-0.0" stroke="#F7DF75" stroke-width="8.3" stroke-linecap="round"/><path d="M -52.0 0.0 A 52.0 52.0 0 0 1 52.0 0.0 Z" fill="#F7DF75"/><path d="M -98.8 26.0 q 32.6 -16.6 65.2 0 t 65.2 0 t 65.2 0" fill="none" stroke="#173A47" stroke-width="7.8" stroke-linecap="round"/><path d="M -98.8 49.4 q 32.6 -16.6 65.2 0 t 65.2 0 t 65.2 0" fill="none" stroke="#173A47" stroke-width="7.8" stroke-linecap="round"/><text x="0" y="120" text-anchor="middle" font-family="Fredoka, Verdana, sans-serif" font-size="34" font-weight="600" letter-spacing="6" fill="#173A47">SUNNY TIDES</text></g></svg>